<?xml version="1.0" encoding="UTF-8"?> <svg xmlns="http://www.w3.org/2000/svg" width="458" height="459" viewBox="0 0 458 459" fill="none"><path d="M196.564 448.241C158.228 440.296 122.457 422.579 94.3756 397.624C22.2804 333.558 -8.87532e-05 232.912 38.0853 143.363C47.4387 121.371 62.6436 99.0515 81.4834 79.6615L98.0934 62.5682L99.265 162.618C100.386 258.386 100.64 263.209 105.165 275.277C114.223 299.421 123.932 314.79 140.649 331.447C183.829 374.475 247.167 385.216 301.011 358.637C351.618 333.656 383.522 279.335 379.815 224.466C377.324 187.609 364.935 160.585 338.193 133.657C317.968 113.296 294.176 99.9945 268.273 94.5718C241.917 89.0552 243.183 88.2497 243.183 110.569V129.839L257.63 132.502C313.587 142.82 350.595 197.798 338.931 253.285C335.206 271.004 326.896 286.655 313.559 301.07C293.29 322.974 264.772 333.444 239.871 333.398C198.696 333.318 164.315 309.909 147.653 275.288C147.653 275.288 143.289 265.394 141.884 259.277C133.635 223.318 138.91 147.62 138.91 147.62L138.271 36.9347L144.801 33.5553C148.392 31.6975 151.837 30.1759 152.457 30.1759C153.075 30.1759 153.86 81.015 154.203 143.149C154.203 143.149 146.272 224.599 156.07 255.813C157.484 260.316 160.17 268.02 160.17 268.02C168.759 285.533 182.529 300.936 200.419 309.415C213.999 315.851 220.837 318.765 240.927 318.765C254.055 318.765 265.683 314.618 279.064 308.461C294.839 301.203 312.932 281.957 319.62 264.385C338.043 215.972 312.389 163.884 262.969 149.36C242.772 143.424 243.185 143.099 243.185 165.074V184.267L252.879 186.863C287.827 196.215 298.489 243.083 271.055 267.164C261.361 275.674 252.628 279.433 237.351 279.433C221.024 279.433 205.355 269.546 197.297 254.383C192.458 245.273 192.05 236.634 192.05 232.674C192.05 196.121 191.258 130.376 191.258 130.376L190.604 17.6059L195.622 16.3594C198.38 15.6695 209.535 13.9733 220.405 12.5848C257.277 7.87817 311.826 19.9505 348.474 40.9319C398.437 69.5343 436.241 118.671 451.983 175.465C457.398 195.001 458 200.679 458 232.107C458 263.392 457.382 269.262 452.083 288.369C430.675 365.559 376.215 420.738 298.347 444.141C281.958 449.068 274.282 450.007 245.364 450.624C222.028 451.122 206.902 450.384 196.564 448.241Z" fill="#C60C30"></path></svg> 