<svg role="img" viewBox="0 0 24 24" xmlns="http://www.w3.org/2000/svg"><title>Bitrix24</title><path d="M4.2 19.8c-.6-.6-1-1.4-1.4-2.3-.3-.9-.5-1.8-.5-2.8s.2-1.9.5-2.8c.3-.9.8-1.7 1.4-2.3.6-.6 1.4-1.2 2.3-1.5.9-.4 1.8-.5 2.8-.5h4.3l1.5 2.3H8.7c-.6 0-1.2.1-1.7.3s-1 .5-1.4.9c-.4.4-.7.9-.9 1.4-.2.5-.3 1.1-.3 1.7s.1 1.2.3 1.7c.2.5.5 1 .9 1.4.4.4.9.7 1.4.9.5.2 1.1.3 1.7.3h6.4l1.5 2.3H8.7c-1 0-1.9-.2-2.8-.5-.9-.3-1.7-.8-2.3-1.4zm17.6-3.2c-.3.9-.8 1.7-1.4 2.3-.6.6-1.4 1.2-2.3 1.5-.9.4-1.8.5-2.8.5h-4.3l-1.5-2.3h5.8c.6 0 1.2-.1 1.7-.3s1-.5 1.4-.9c.4-.4.7-.9.9-1.4.2-.5.3-1.1.3-1.7s-.1-1.2-.3-1.7c-.2-.5-.5-1-.9-1.4-.4-.4-.9-.7-1.4-.9-.5-.2-1.1-.3-1.7-.3H8.9L7.4 7.6h7.8c1 0 1.9.2 2.8.5.9.3 1.7.8 2.3 1.4.6.6 1 1.4 1.4 2.3.3.9.5 1.8.5 2.8s-.2 1.9-.5 2.8z"/></svg>
