<svg role="img" viewBox="0 0 24 24" xmlns="http://www.w3.org/2000/svg"><title>Adobe Acrobat Reader</title><path d="M23.598 9.836s-1.917-3.676-5.56-5.098c0 0 1.105 2.09 1.336 3.213-.464-.095-1.217-.247-1.834-.242-.056-.405-.343-1.538-.803-2.34-.461-.803-1.25-1.907-1.25-1.907l1.145 3.443a.462.462 0 0 1-.436.594h-.003a.462.462 0 0 1-.436-.312c-.288-.806-.64-1.632-.996-2.372-.358-.747-.76-1.42-1.187-2.087-.076-.119.061-.264.175-.186.34.235.65.495.939.77a9.26 9.26 0 0 1 1.93 2.828c.128.276.243.558.346.845a.463.463 0 0 1-.436.594h-.003a.463.463 0 0 1-.438-.315c-.49-1.445-1.313-2.792-2.382-3.89-.18-.186-.37-.362-.565-.532-.06-.053-.147-.006-.14.075.045.494.059.99.043 1.484a11.89 11.89 0 0 1-.282 2.24.463.463 0 0 1-.9-.205 10.78 10.78 0 0 0 .203-2.672 7.652 7.652 0 0 0-.214-1.427c-.012-.049-.078-.057-.102-.013a12.19 12.19 0 0 0-.64 1.376 12.37 12.37 0 0 0-.728 2.583.464.464 0 0 1-.912-.167c.16-1.135.493-2.239.98-3.272a15.67 15.67 0 0 1 .626-1.178c.03-.05-.014-.113-.07-.101-.697.146-1.378.36-2.033.637-2.057.87-3.752 2.407-4.747 4.304a.463.463 0 0 1-.824-.42C5.168 4.39 7.16 2.596 9.564 1.58c.814-.344 1.654-.595 2.518-.76.141-.027.265.096.238.237l-.003.014a10.41 10.41 0 0 0-.168 1.61c-.005.152.2.207.266.072.198-.405.416-.8.652-1.181A7.696 7.696 0 0 1 15.38.008c.08-.017.154.055.137.136-.065.308-.113.62-.143.933a6.86 6.86 0 0 0 .072 1.623c.03.176.278.167.296-.012.046-.445.13-.885.25-1.316.17-.602.414-1.184.72-1.728.033-.058.11-.068.157-.02a8.198 8.198 0 0 1 1.508 2.07c.37.668.668 1.374.887 2.106.016.052.082.069.12.03.37-.388.776-.74 1.214-1.05.068-.048.16.012.149.097-.046.352-.133.698-.258 1.03-.278.74-.71 1.41-1.245 1.996a.462.462 0 0 1-.767-.506c.164-.377.295-.77.389-1.173a.07.07 0 0 0-.111-.07c-.43.324-.818.702-1.155 1.12-.087.109-.279.07-.315-.063a11.21 11.21 0 0 0-.835-2.19c-.03-.059-.116-.054-.14.007a9.58 9.58 0 0 0-.407 1.387c-.112.497-.179 1.005-.2 1.516-.003.06.064.1.114.067a7.93 7.93 0 0 1 1.53-.795c.054-.022.106.034.084.09-.107.27-.194.548-.259.833a.463.463 0 0 1-.9-.201c.039-.183.087-.362.144-.54a.07.07 0 0 0-.087-.088c-.44.15-.859.356-1.243.61-.056.037-.031.12.036.12h.001c.626.028 1.25.113 1.852.271.1.026.125.152.044.21a6.78 6.78 0 0 0-.946.82.462.462 0 0 1-.65-.656c.18-.178.37-.346.569-.503a.07.07 0 0 0-.033-.123c-.484-.082-.978-.124-1.472-.138-.062-.002-.096.07-.055.117.302.344.565.722.784 1.127a.463.463 0 0 1-.808.45c-.155-.282-.337-.548-.543-.794a.07.07 0 0 0-.117.038c-.057.347-.085.7-.083 1.053a5.36 5.36 0 0 0 .213 1.39c.019.067-.05.125-.113.095a9.205 9.205 0 0 1-1.47-.867c-.053-.038-.125.014-.105.076.132.41.219.833.257 1.261a.462.462 0 0 1-.92.085 6.082 6.082 0 0 0-.147-.88.07.07 0 0 0-.117-.031c-.256.282-.481.59-.671.92a4.17 4.17 0 0 0-.467 1.18.462.462 0 0 1-.899-.21c.071-.31.179-.61.32-.893.225-.45.518-.863.867-1.226.053-.054.003-.14-.069-.119a7.562 7.562 0 0 0-1.59.64c-.07.037-.145-.046-.098-.109.323-.432.683-.837 1.076-1.21a.07.07 0 0 0-.036-.12 8.29 8.29 0 0 0-1.534-.175.463.463 0 0 1 .023-.925c.692.012 1.38.091 2.053.235a.07.07 0 0 0 .065-.111 7.06 7.06 0 0 0-1.074-1.303.463.463 0 0 1 .635-.673c.47.4.888.858 1.243 1.363.045.063.133.061.174-.006.388-.627.687-1.306.887-2.017a.07.07 0 0 0-.103-.08c-.55.3-1.067.657-1.541 1.064a.462.462 0 1 1-.6-.704c.573-.49 1.195-.92 1.856-1.282.094-.052.08-.19-.023-.224-.628-.206-1.276-.358-1.93-.459a.463.463 0 0 1 .136-.916c.8.118 1.59.314 2.354.583a.07.07 0 0 0 .086-.094 8.147 8.147 0 0 0-.6-1.406c-.029-.054.019-.117.077-.101.64.179 1.254.435 1.83.76a.462.462 0 0 1-.454.805 6.81 6.81 0 0 0-.948-.428.07.07 0 0 0-.091.089c.13.35.234.711.31 1.078.012.059.082.08.12.036a7.52 7.52 0 0 1 1.07-1.04c.059-.046.143.008.134.082a6.96 6.96 0 0 0 .046 1.533c.01.065.09.088.127.035a7.26 7.26 0 0 1 .897-1.13c.048-.05.13-.023.14.046.085.533.11 1.074.073 1.614-.003.054.055.09.1.062a5.86 5.86 0 0 1 1.18-.556c.058-.02.11.042.085.097a5.54 5.54 0 0 0-.377 1.2c-.015.08.082.132.137.074a4.1 4.1 0 0 1 .59-.498c.06-.042.139.013.127.085a5.34 5.34 0 0 0-.022 1.47c.007.06.078.084.117.04.2-.224.426-.424.676-.596.62-.427 1.321-.718 2.054-.858.06-.011.108.052.082.108a5.47 5.47 0 0 0-.319.894c-.016.063.055.11.107.072.24-.175.5-.32.775-.432a.463.463 0 0 1 .35.857 3.18 3.18 0 0 0-.44.235c-.051.033-.034.109.027.12.306.052.6.152.872.294a.463.463 0 0 1-.441.814 1.84 1.84 0 0 0-.4-.133.07.07 0 0 0-.073.098c.094.22.17.448.227.68a.463.463 0 0 1-.901.199c-.038-.166-.09-.328-.155-.485a.07.07 0 0 0-.123-.017c-.24.291-.53.54-.855.735-.053.032-.034.11.03.118.374.046.74.139 1.087.278a.463.463 0 0 1-.344.859c-.295-.118-.607-.19-.925-.214-.064-.005-.102.069-.062.118.142.178.307.337.492.471a.463.463 0 0 1-.535.755c-.212-.15-.4-.327-.56-.528a.07.07 0 0 0-.117.017c-.187.393-.434.755-.73 1.072a.462.462 0 1 1-.685-.622c.172-.19.321-.4.443-.628a.07.07 0 0 0-.055-.101c-.334-.044-.675-.037-1.008.022-.071.012-.116-.066-.073-.122a5.8 5.8 0 0 0 .68-1.242c.021-.053-.022-.107-.078-.1-.547.082-1.076.24-1.578.466a.462.462 0 1 1-.382-.842c.357-.162.726-.291 1.103-.386.062-.016.078-.093.028-.133-.38-.309-.799-.565-1.247-.76a.463.463 0 1 1 .37-.848c.279.122.545.27.797.44a.07.07 0 0 0 .11-.06c-.01-.372-.06-.743-.148-1.105a.463.463 0 0 1 .896-.226c.07.283.12.572.147.864.004.043.054.06.082.028a5.2 5.2 0 0 1 .835-.716c.055-.037.027-.12-.04-.12-.447.001-.893.05-1.328.145a.463.463 0 0 1-.193-.905c.546-.117 1.104-.173 1.664-.167a.07.07 0 0 0 .06-.108 6.46 6.46 0 0 0-.758-.97 5.81 5.81 0 0 0-1.136-.994.463.463 0 0 1 .49-.786c.478.295.91.656 1.285 1.072.23.256.436.532.618.827.028.045.095.037.112-.013a6.3 6.3 0 0 0 .246-1.447c.004-.055.068-.08.108-.04.242.246.457.516.643.808.246.388.44.805.577 1.24a.07.07 0 0 0 .12.03c.284-.282.608-.522.961-.715a.463.463 0 0 1 .448.81c-.237.131-.457.29-.658.474-.041.037-.014.103.04.103.587.002 1.172.066 1.744.19a.463.463 0 0 1-.183.907 7.47 7.47 0 0 0-1.192-.144c-.069-.004-.102.08-.052.129.251.245.478.514.68.802.237.34.436.702.594 1.084.02.049.084.058.117.018.255-.316.548-.6.872-.847.04-.03.016-.093-.035-.092-.324.005-.649.034-.97.086a.463.463 0 0 1-.148-.914c.397-.064.8-.097 1.203-.098a.07.07 0 0 0 .048-.12 5.27 5.27 0 0 0-.96-.834 4.45 4.45 0 0 0-.727-.404c-.063-.028-.051-.12.017-.131.424-.072.857-.103 1.29-.093a.463.463 0 0 1-.026.925c-.247-.006-.494.005-.739.033-.061.007-.086.078-.043.12.3.295.564.622.79.977.04.064.129.063.168-.002a7.01 7.01 0 0 1 .82-1.127c.052-.058.14-.034.157.037.058.228.098.46.12.694.008.073.099.096.136.035.104-.173.202-.35.292-.531.053-.108-.007-.238-.124-.27-.412-.11-.838-.172-1.266-.185a.463.463 0 0 1 .03-.925c.395.01.788.052 1.176.126.047.009.087-.036.074-.082a4.45 4.45 0 0 0-.306-.771c-.034-.067.026-.14.098-.119.361.108.704.258 1.019.449a.462.462 0 1 1-.474.794c-.128-.078-.263-.145-.403-.2a.07.07 0 0 0-.09.095c.12.318.266.623.438.91.026.043.087.042.111-.002.18-.316.392-.613.633-.883a.07.07 0 0 0-.048-.117c-.367-.023-.737-.013-1.102.029a.463.463 0 0 1-.108-.92c.256-.03.514-.046.772-.049a.07.07 0 0 0 .058-.11 4.7 4.7 0 0 0-.492-.641c-.04-.044.003-.11.06-.092.317.1.62.239.903.413a.462.462 0 1 1-.487.786 2.02 2.02 0 0 0-.322-.152c-.059-.022-.112.037-.088.095.14.333.32.648.534.938.034.046.103.036.124-.017.14-.351.324-.683.548-.984.038-.051-.012-.118-.073-.097-.304.101-.594.236-.865.403a.463.463 0 0 1-.485-.788c.327-.201.68-.364 1.05-.485a.07.07 0 0 0 .018-.123 3.56 3.56 0 0 0-.722-.427c-.049-.023-.098.028-.081.08.094.28.22.546.375.795a.463.463 0 0 1-.78.494 4.75 4.75 0 0 1-.36-.638.07.07 0 0 0-.128.003c-.168.375-.387.723-.652 1.032-.046.054.002.134.071.119.366-.08.719-.2 1.054-.359a.462.462 0 1 1 .398.835c-.414.196-.85.342-1.301.437a.07.07 0 0 0-.035.117c.213.201.45.375.706.518a.463.463 0 0 1-.445.81 4.1 4.1 0 0 1-.55-.345c-.042-.03-.1-.007-.108.044-.057.372-.162.735-.314 1.078a.463.463 0 0 1-.842-.385c.076-.166.139-.337.188-.513a.07.07 0 0 0-.085-.086c-.367.082-.745.117-1.123.104a.463.463 0 0 1 .03-.925c.271.01.54-.01.805-.058a.07.07 0 0 0 .038-.116 4.97 4.97 0 0 1-.654-.858.463.463 0 0 1 .772-.512c.2.3.432.577.694.823.042.04.11.012.112-.045a5.37 5.37 0 0 0-.188-1.475c-.016-.058.046-.103.096-.07.36.24.681.533.953.87a.463.463 0 0 1-.72.58 2.64 2.64 0 0 0-.428-.39c-.053-.039-.122.013-.107.078.113.46.17.931.17 1.407 0 .04.04.068.076.053.366-.152.706-.354 1.01-.604a.462.462 0 1 1 .588.713c-.313.258-.656.476-1.02.65a.07.07 0 0 0-.026.107c.2.27.43.518.687.738a.463.463 0 0 1-.598.706 4.75 4.75 0 0 1-.595-.554.07.07 0 0 0-.116.026c-.154.38-.359.738-.61 1.062a.463.463 0 1 1-.74-.554c.148-.198.277-.41.384-.634a.07.07 0 0 0-.064-.099c-.372-.012-.742-.067-1.1-.165a.463.463 0 0 1 .25-.89c.286.08.58.126.877.138a.07.07 0 0 0 .062-.108 3.98 3.98 0 0 1-.383-.964c-.014-.06.055-.102.104-.064.366.287.692.618.973.986a.463.463 0 0 1-.741.553 4.16 4.16 0 0 0-.494-.516c-.045-.04-.114-.006-.113.055.006.395.065.788.177 1.167a.463.463 0 0 1-.888.254c-.089-.303-.148-.614-.178-.928-.004-.049-.064-.071-.096-.036-.27.297-.586.55-.937.752a.462.462 0 1 1-.466-.8c.252-.147.48-.326.68-.532a.07.07 0 0 0-.027-.114 4.29 4.29 0 0 0-1.009-.254.463.463 0 0 1 .102-.92c.426.044.844.14 1.244.284a.07.07 0 0 0 .088-.09 3.65 3.65 0 0 0-.372-.826c-.028-.048.015-.106.069-.093.433.106.848.268 1.235.483a.463.463 0 0 1-.454.806 3.27 3.27 0 0 0-.569-.227c-.06-.018-.109.047-.078.1.207.35.368.725.48 1.118.015.053.083.063.113.017.217-.333.48-.635.783-.897.046-.04.02-.113-.04-.115a4.65 4.65 0 0 0-.994.08.463.463 0 0 1-.175-.909c.336-.065.678-.1 1.02-.104.054 0 .086-.06.056-.103a3.31 3.31 0 0 0-.599-.626.463.463 0 1 1 .574-.726c.287.227.543.49.76.785.032.043.098.03.112-.022a4.11 4.11 0 0 0 .106-.88.463.463 0 0 1 .925.042c-.003.416-.055.83-.155 1.232-.013.054.047.095.09.062.341-.263.64-.574.888-.924a.463.463 0 1 1 .758.532c-.196.28-.42.54-.668.774-.044.042-.016.115.044.115.404.001.806-.042 1.198-.127a.463.463 0 0 1 .204.903 5.9 5.9 0 0 1-.93.133c-.055.005-.079.07-.04.108.305.298.654.548 1.036.741a.463.463 0 0 1-.408.83 5.01 5.01 0 0 1-.923-.52c-.044-.032-.106-.001-.106.053 0 .435.056.87.166 1.29a.462.462 0 1 1-.898.215 6.23 6.23 0 0 1-.182-1.056c-.006-.055-.07-.08-.11-.043-.312.293-.666.541-1.05.736a.463.463 0 0 1-.418-.825c.278-.14.538-.31.777-.506a.07.07 0 0 0-.02-.121 4.64 4.64 0 0 1-.91-.467.463.463 0 0 1 .503-.777c.284.184.594.326.92.422.054.016.102-.038.081-.09a4.14 4.14 0 0 1-.25-1.092c-.008-.064.066-.106.12-.069.314.218.596.477.84.773.04.048.115.028.127-.034a4.6 4.6 0 0 0 .038-1.253.463.463 0 1 1 .92-.104c.045.402.05.809.018 1.214-.004.057.06.094.107.06a4.01 4.01 0 0 0 .774-.75c.039-.047-.008-.113-.066-.095-.328.1-.667.164-1.01.188a.463.463 0 0 1-.064-.923c.318-.022.632-.074.94-.157a.07.07 0 0 0 .027-.118 4.25 4.25 0 0 0-.79-.569.463.463 0 0 1 .453-.807c.349.195.67.434.955.71.042.041.111.015.116-.044a4.26 4.26 0 0 0-.114-1.19.463.463 0 1 1 .898-.224c.108.435.16.883.156 1.334-.001.056.065.087.106.05.26-.236.485-.504.67-.8.032-.052-.015-.114-.073-.096a4.4 4.4 0 0 1-1.009.17.463.463 0 0 1-.046-.923c.3-.015.598-.054.891-.118a.07.07 0 0 0 .04-.111 4.42 4.42 0 0 0-.667-.717.462.462 0 1 1 .604-.701c.3.259.567.554.793.878.033.047.104.041.128-.01a4.63 4.63 0 0 0 .226-1.16.463.463 0 0 1 .92.103c-.027.435-.103.866-.227 1.283-.017.056.048.101.098.068.268-.18.51-.393.724-.633.038-.043-.003-.108-.058-.097-.317.066-.642.1-.97.1a.463.463 0 0 1 0-.925c.375 0 .747-.046 1.107-.138.051-.013.072-.073.038-.112a4.33 4.33 0 0 0-.732-.622.463.463 0 0 1 .523-.763c.31.213.59.464.835.746.037.043.106.028.122-.026a4.42 4.42 0 0 0 .121-1.198.463.463 0 0 1 .925.02 5.36 5.36 0 0 1-.107 1.16c-.014.062.061.104.108.06a3.8 3.8 0 0 0 .582-.717.07.07 0 0 0-.049-.105c-.34-.054-.687-.08-1.034-.077a.463.463 0 0 1-.012-.925c.407-.003.814.033 1.215.107.053.01.093-.048.063-.093a4.75 4.75 0 0 0-.722-.81.463.463 0 0 1 .622-.685c.317.288.59.617.813.979.032.052.106.046.13-.01a4.19 4.19 0 0 0 .159-1.23.463.463 0 0 1 .925.028c-.002.449-.059.896-.172 1.33-.015.058.056.1.103.06a3.6 3.6 0 0 0 .527-.58.07.07 0 0 0-.036-.109 5.23 5.23 0 0 0-1.01-.214.463.463 0 0 1 .103-.92c.404.045.802.13 1.188.252.051.016.097-.037.073-.085-.194-.396-.445-.762-.745-1.086z"/></svg>
