<svg role="img" viewBox="0 0 24 24" xmlns="http://www.w3.org/2000/svg"><title>Microsoft Word</title><path d="M23.004 1.5c.55 0 .996.445.996.996v19.008c0 .55-.445.996-.996.996H6.996A.996.996 0 0 1 6 21.504V18H.996A.996.996 0 0 1 0 17.004V6.996A.996.996 0 0 1 .996 6H6V2.496c0-.55.445-.996.996-.996zM6.5 11.85l-.85 3.6h-.9l-1.25-5.4h.9l.75 3.45.9-3.45h.8l.85 3.45.8-3.45h.85l-1.25 5.4h-.85zm6.5.15a2.25 2.25 0 1 0 0 4.5 2.25 2.25 0 0 0 0-4.5zm0 .75c.825 0 1.5.675 1.5 1.5s-.675 1.5-1.5 1.5-1.5-.675-1.5-1.5.675-1.5 1.5-1.5zM21 3H7.5v3h.496c.55 0 .996.445.996.996v10.008c0 .55-.445.996-.996.996H7.5v3H21z"/></svg>
